<?xml version="1.0" encoding="UTF-8"?>
<svg version="1.1" xmlns="http://www.w3.org/2000/svg" width="314" height="342">
<path d="M0 0 C1.52429481 0.37102382 3.04879209 0.74121676 4.57348633 1.1105957 C8.24529871 2.00414152 11.91293933 2.91340877 15.57867432 3.83154297 C17.28015741 4.25746777 18.98254308 4.6797834 20.68505859 5.1015625 C29.92868031 7.40049433 38.96798713 10.03265458 47.97265625 13.13671875 C51.37626932 14.27125644 54.78837113 15.24705748 58.25 16.1875 C72.34077238 20.13610062 85.97376458 25.76630096 99.5 31.3125 C100.78763519 31.82323249 102.07539711 32.3336456 103.36328125 32.84375 C104.61754078 33.35329794 105.87145967 33.86368532 107.125 34.375 C108.78402344 35.04208984 108.78402344 35.04208984 110.4765625 35.72265625 C114.63188037 37.90768774 117.59799358 40.55358748 119.75 44.75 C121.13023462 49.46580163 121.62916725 54.15417281 121.81640625 59.05078125 C121.85830078 60.11876953 121.90019531 61.18675781 121.94335938 62.28710938 C121.98267578 63.38861328 122.02199219 64.49011719 122.0625 65.625 C122.10568359 66.71490234 122.14886719 67.80480469 122.19335938 68.92773438 C122.31185814 72.05572555 122.41163287 75.1835238 122.5 78.3125 C122.52481445 79.08585693 122.54962891 79.85921387 122.57519531 80.65600586 C122.69243414 87.24618089 121.90054946 93.71381845 121.125 100.25 C120.84196619 102.67572509 120.55941407 105.10150643 120.27734375 107.52734375 C120.14054199 108.69765137 120.00374023 109.86795898 119.86279297 111.07373047 C119.56214108 113.75774657 119.29633889 116.43816776 119.06640625 119.12890625 C115.40324116 160.86504607 100.41191911 202.65783842 74.03588867 235.39892578 C72.91760347 236.79220497 71.81573351 238.19870741 70.72387695 239.61279297 C65.65854805 246.11235413 60.15451802 252.00669834 54.3125 257.8125 C52.92212524 259.19659058 52.92212524 259.19659058 51.50366211 260.60864258 C44.84988117 267.15337367 38.14583259 272.96927336 30.5 278.3125 C29.35099698 279.15239894 28.20393168 279.9949537 27.05859375 280.83984375 C16.13985145 288.85063223 4.8920538 295.80563541 -7.25 301.8125 C-8.125354 302.25851562 -9.00070801 302.70453125 -9.90258789 303.1640625 C-16.48400697 306.33061193 -21.910375 307.91823905 -28.99121094 305.44091797 C-31.72860404 304.23348623 -34.35788759 302.90351226 -37 301.5 C-37.9583374 301.00443604 -38.9166748 300.50887207 -39.90405273 299.99829102 C-58.00201617 290.47296789 -73.81344529 278.35553356 -89.5 265.3125 C-90.60794922 264.40951172 -90.60794922 264.40951172 -91.73828125 263.48828125 C-93.36461413 262.14223821 -94.93947433 260.73431227 -96.5 259.3125 C-96.5 258.6525 -96.5 257.9925 -96.5 257.3125 C-97.09941406 257.04695313 -97.69882813 256.78140625 -98.31640625 256.5078125 C-102.25232185 254.35326836 -104.67144615 250.73342115 -107.5 247.3125 C-108.48563446 246.14970345 -109.47131518 244.98694612 -110.45703125 243.82421875 C-153.11921049 192.9862484 -169.14817392 123.95628632 -164.75 58.5625 C-164.67628174 57.41322021 -164.60256348 56.26394043 -164.52661133 55.07983398 C-164.3974231 53.47023804 -164.3974231 53.47023804 -164.265625 51.828125 C-164.19118164 50.88227539 -164.11673828 49.93642578 -164.04003906 48.96191406 C-163.213618 44.90751921 -161.70015079 42.25529301 -158.43701172 39.69189453 C-152.02006372 35.99744753 -145.49391426 32.94691403 -138.625 30.1875 C-137.47370605 29.72230957 -136.32241211 29.25711914 -135.13623047 28.77783203 C-120.19617653 22.8590067 -104.92382582 17.91359847 -89.63006592 12.99993896 C-87.60685648 12.34698593 -85.58636378 11.68639204 -83.56689453 11.02197266 C-69.80000052 6.50168883 -55.98923982 2.51146202 -41.875 -0.75 C-40.60035889 -1.04946533 -39.32571777 -1.34893066 -38.01245117 -1.6574707 C-24.29216047 -4.69964154 -13.43398345 -3.34849554 0 0 Z " fill="#2B92F3" transform="translate(168.5,9.6875)"/>
<path d="M0 0 C1.06056107 0.00081573 1.06056107 0.00081573 2.14254761 0.00164795 C34.36370544 0.1154602 61.12758498 12.35750693 84.16503906 34.94140625 C96.46897005 47.56346823 96.46897005 47.56346823 98.1875 55.125 C97.19400364 60.29118105 93.9705453 63.48545105 90.5625 67.375 C89.82902344 68.21804687 89.09554687 69.06109375 88.33984375 69.9296875 C86.11295963 72.443049 83.84674475 74.91377773 81.5625 77.375 C81.02238281 77.98085937 80.48226562 78.58671875 79.92578125 79.2109375 C61.9321317 98.51898462 35.24273767 109.51893755 9.19921875 110.76171875 C-22.67608945 111.61034402 -50.028529 102.18895553 -73.4375 80.375 C-74.40429688 79.48941406 -75.37109375 78.60382813 -76.3671875 77.69140625 C-82.77556506 71.57593238 -89.7191266 64.53447289 -93.4375 56.375 C-92.64025428 51.45007886 -89.92220368 47.89068301 -86.875 44.0625 C-86.42809814 43.49490967 -85.98119629 42.92731934 -85.52075195 42.3425293 C-70.6169254 23.71076877 -48.80206407 8.06004864 -25.4375 2.375 C-24.78015869 2.20581055 -24.12281738 2.03662109 -23.44555664 1.86230469 C-15.67481932 0.05857079 -7.94561063 -0.02294979 0 0 Z " fill="#EFF5F9" transform="translate(144.4375,108.625)"/>
<path d="M0 0 C0.69609375 0.30164063 1.3921875 0.60328125 2.109375 0.9140625 C11.43715604 5.22728456 18.01385586 12.19600043 22.1640625 21.65234375 C25.68414387 31.53817974 24.97131148 43.36808783 21 53 C19.25826407 55.93292314 17.27424667 58.46401138 15 61 C14.236875 61.86625 13.47375 62.7325 12.6875 63.625 C2.7349072 72.42031456 -6.06149921 75.59979922 -19.34765625 75.28125 C-30.59400027 74.41522137 -39.60766537 69.2241047 -47.36328125 61.125 C-54.99507155 51.21642262 -56.76779079 41.18512418 -56 29 C-54.4042718 19.46620017 -49.47753037 11.35134864 -41.91796875 5.34375 C-29.48730954 -3.36530656 -14.23714264 -6.55805389 0 0 Z " fill="#056AD8" transform="translate(163,128)"/>
<path d="M0 0 C3.91943343 3.25229583 7.55732182 6.5544657 11.0625 10.25 C16.77626406 16.02206777 23.25298096 20.52876119 30 25 C30.9796875 25.65226562 31.959375 26.30453125 32.96875 26.9765625 C44.85454348 34.38885678 58.34739499 38.29322266 72 41 C72.05607422 41.87398437 72.05607422 41.87398437 72.11328125 42.765625 C72.5104228 47.71821371 73.26736646 52.32323131 74.5625 57.125 C75.83119662 61.98104569 76.545899 65.99592583 76 71 C74.78515625 72.71484375 74.78515625 72.71484375 73 74 C64.77891524 74.90248615 57.22341263 71.49274366 50 68 C49.09378906 67.57847656 48.18757813 67.15695313 47.25390625 66.72265625 C34.95706129 60.56531008 25.01324268 51.08144965 17 40 C16.45988281 39.25878906 15.91976562 38.51757812 15.36328125 37.75390625 C9.36692146 28.67280494 5.85474705 17.59241613 2.921875 7.16796875 C2.15966417 4.54867645 1.32600616 2.36786815 0 0 Z " fill="#026BD9" transform="translate(59,177)"/>
<path d="M0 0 C0 16.11868192 -10.85951639 34.3688863 -21 46 C-21.46792969 46.61101562 -21.93585938 47.22203125 -22.41796875 47.8515625 C-32.19155334 60.40531632 -50.29052311 70.47385296 -66 73 C-70.45215834 73.42591649 -70.45215834 73.42591649 -72.62792969 71.734375 C-75.15448088 68.54067043 -74.38579292 64.88281905 -74 61 C-73.35734375 57.28597397 -72.48960748 53.65224158 -71.5625 50 C-71.33240234 49.04738281 -71.10230469 48.09476563 -70.86523438 47.11328125 C-69.15229571 40.15229571 -69.15229571 40.15229571 -68 39 C-65.7552627 38.55585412 -63.5038054 38.14556585 -61.25 37.75 C-36.23886737 32.93240348 -17.22849449 17.92852361 0 0 Z " fill="#036BD9" transform="translate(233,178)"/>
<path d="M0 0 C0.67160156 0.45246094 1.34320313 0.90492187 2.03515625 1.37109375 C5.04985112 3.54480991 5.99291932 4.97757786 7.125 8.5625 C7 12 7 12 5.5 14.5 C2.78156569 16.13106059 1.13967434 16.51358476 -1.98046875 15.86328125 C-4.54789074 14.76579525 -6.31206868 13.24858181 -8.4375 11.4375 C-21.63578314 0.31579998 -38.85449377 -5.32359066 -56 -6 C-56.78246094 -6.03996094 -57.56492187 -6.07992187 -58.37109375 -6.12109375 C-78.59195493 -6.67110117 -97.3328353 0.22572237 -112.8125 12.9375 C-115.59687668 15.14906215 -116.81391276 15.96209334 -120.375 16.6875 C-123 16 -123 16 -124.875 14.375 C-126.31687501 11.33104166 -126.32515455 9.34444681 -126 6 C-115.47935549 -8.29937729 -91.97839018 -16.69516094 -75.0859375 -19.55859375 C-47.9156396 -22.86492435 -22.01174862 -16.17399938 0 0 Z " fill="#EBF4FA" transform="translate(207,64)"/>
<path d="M0 0 C2.04899492 1.57810789 3.15253779 2.43007558 4.3125 4.75 C4.75970497 10.00465839 4.75970497 10.00465839 3.1875 12.625 C0.19469208 14.42068475 -1.21477305 14.39309758 -4.6875 13.75 C-6.5859375 12.35546875 -6.5859375 12.35546875 -8.6875 10.5625 C-14.32617245 5.82678362 -20.71615375 3.85095367 -27.6875 1.75 C-28.33332031 1.54632813 -28.97914063 1.34265625 -29.64453125 1.1328125 C-43.00232087 -1.37017676 -58.29694237 0.83076899 -69.64453125 8.25390625 C-71.85669371 9.83195782 -71.85669371 9.83195782 -74.4375 12.125 C-76.6875 13.75 -76.6875 13.75 -79.8125 14.25 C-82.6875 13.75 -82.6875 13.75 -84.625 12.1875 C-86.30832622 8.3257516 -86.15574206 6.75429654 -84.6875 2.75 C-62.04661234 -19.34481802 -24.41772237 -17.68774942 0 0 Z " fill="#EAF4F9" transform="translate(187.6875,86.25)"/>
<path d="M0 0 C4.76139935 2.77097831 7.56908282 6.2151694 10 11.1875 C11.24924273 17.55863793 10.44936747 22.57301271 7.125 28.1875 C3.32528912 33.38710436 -1.1741762 35.70597991 -7.484375 36.7109375 C-13.65464155 37.0218424 -18.34914998 35.02394769 -23.0625 31.1875 C-26.730538 26.72637271 -29.05257223 22.63199438 -29.875 16.875 C-28.84048594 9.6334016 -25.65933198 5.08179251 -20.05859375 0.50390625 C-14.47207291 -3.24204392 -5.92365709 -2.71924068 0 0 Z " fill="#EDF4F8" transform="translate(156.375,146.625)"/>
<path d="M0 0 C3.06219522 4.59329283 3.10939551 9.32460914 3.31640625 14.73828125 C3.35830078 15.80626953 3.40019531 16.87425781 3.44335938 17.97460938 C3.48267578 19.07611328 3.52199219 20.17761719 3.5625 21.3125 C3.60568359 22.40240234 3.64886719 23.49230469 3.69335938 24.61523438 C3.8118578 27.74321662 3.91098078 30.87105235 4 34 C4.02626465 34.76030518 4.0525293 35.52061035 4.07958984 36.30395508 C4.21676718 43.2782122 3.31624284 50.14649647 2.5 57.0625 C2.35691406 58.30966797 2.21382813 59.55683594 2.06640625 60.84179688 C1.71545379 63.89508332 1.3598759 66.94775468 1 70 C0.67 70 0.34 70 0 70 C0 46.9 0 23.8 0 0 Z " fill="#013789" transform="translate(287,54)"/>
<path d="M0 0 C1.02211881 3.37464061 1.12091469 6.44460581 1.11352539 9.96191406 C1.11341209 11.76332855 1.11341209 11.76332855 1.11329651 13.60113525 C1.10813522 14.89291687 1.10297394 16.18469849 1.09765625 17.515625 C1.09579017 18.85512235 1.09436716 20.19462038 1.09336853 21.53411865 C1.08955835 25.05222472 1.07974091 28.57028921 1.06866455 32.08837891 C1.05841817 35.68130939 1.053864 39.27424661 1.04882812 42.8671875 C1.03811725 49.91147529 1.02105887 56.95573493 1 64 C0.34 64 -0.32 64 -1 64 C-6.01723455 12.0344691 -6.01723455 12.0344691 0 0 Z " fill="#0455B7" transform="translate(6,54)"/>
<path d="M0 0 C41.28288288 9.28288288 41.28288288 9.28288288 50 18 C48.47734784 17.73958665 46.95694316 17.46602684 45.4375 17.1875 C44.59058594 17.03667969 43.74367187 16.88585937 42.87109375 16.73046875 C40.04837016 16.01230642 37.53603923 14.96161914 34.88110352 13.77807617 C31.59212049 12.4176623 28.1741451 11.5174145 24.75 10.5625 C16.31350224 8.14749299 8.14116276 5.27667366 0 2 C0 1.34 0 0.68 0 0 Z " fill="#034DAB" transform="translate(212,22)"/>
<path d="M0 0 C17.00187168 2.35843769 33.62339426 6.95609129 50 12 C50 12.33 50 12.66 50 13 C48.66780204 13.08326237 47.33395836 13.14018053 46 13.1875 C44.88625 13.23970703 44.88625 13.23970703 43.75 13.29296875 C40.56803629 12.95398114 38.05938297 11.95150751 35.1015625 10.77758789 C31.80643982 9.55837719 28.42934659 8.86064295 25 8.125 C16.50481666 6.22305079 8.26654832 3.71472112 0 1 C0 0.67 0 0.34 0 0 Z " fill="#0355B4" transform="translate(162,9)"/>
<path d="M0 0 C0.495 0.99 0.495 0.99 1 2 C-5.34076114 4.24063326 -11.69929137 5.99136293 -18.25 7.5 C-19.16225342 7.71358154 -20.07450684 7.92716309 -21.0144043 8.1472168 C-23.6752915 8.76911718 -26.33743573 9.38532509 -29 10 C-30.41800191 10.32928431 -31.83597409 10.65869673 -33.25390625 10.98828125 C-36.16828253 11.66329046 -39.08345336 12.33444297 -42 13 C-42 12.34 -42 11.68 -42 11 C-33.14374988 7.417485 -24.11405479 5.26399349 -14.8125 3.25 C-13.36899003 2.93167174 -11.92562937 2.61266558 -10.48242188 2.29296875 C-6.98996351 1.52084305 -3.49558952 0.757841 0 0 Z " fill="#034FB7" transform="translate(141,6)"/>
<path d="M0 0 C0 3.61029169 -0.96092582 6.55806676 -2 10 C-2.33 9.34 -2.66 8.68 -3 8 C-7.17882671 10.56428003 -10.12505529 13.01930733 -13 17 C-14.32 16.67 -15.64 16.34 -17 16 C-16.35933594 15.43152344 -15.71867188 14.86304688 -15.05859375 14.27734375 C-9.88469658 9.65861886 -4.83207353 4.97607572 0 0 Z " fill="#1768CD" transform="translate(233,178)"/>
<path d="M0 0 C-0.33 0.99 -0.66 1.98 -1 3 C-2.99365234 3.90722656 -2.99365234 3.90722656 -5.5859375 4.640625 C-6.51664063 4.90617187 -7.44734375 5.17171875 -8.40625 5.4453125 C-9.3859375 5.71085937 -10.365625 5.97640625 -11.375 6.25 C-12.83292969 6.67152344 -12.83292969 6.67152344 -14.3203125 7.1015625 C-21.60113957 9.13295348 -21.60113957 9.13295348 -25 8 C-20.14761461 5.8566536 -15.2837759 3.98201886 -10.25 2.3125 C-9.59128906 2.08755859 -8.93257812 1.86261719 -8.25390625 1.63085938 C-5.37453753 0.67009638 -3.05727628 0 0 0 Z " fill="#0350AF" transform="translate(77,24)"/>
<path d="M0 0 C0.66 0.33 1.32 0.66 2 1 C-0.78694182 3.8364029 -3.58042817 6.66617691 -6.38012695 9.48999023 C-7.33149157 10.45140847 -8.28105291 11.41461464 -9.22875977 12.37963867 C-10.59175121 13.7669055 -11.96180411 15.14722328 -13.33203125 16.52734375 C-14.56530151 17.77632446 -14.56530151 17.77632446 -15.82348633 19.05053711 C-18 21 -18 21 -21 22 C-19.63854692 18.86391655 -18.20488211 17.0854655 -15.5625 14.9375 C-10.0482321 10.28642321 -5.05442686 5.13804789 0 0 Z " fill="#0361BC" transform="translate(230,257)"/>
<path d="M0 0 C2.584859 0.6191639 5.16776172 1.24507682 7.75 1.875 C8.47960937 2.04902344 9.20921875 2.22304688 9.9609375 2.40234375 C13.53285028 3.27908598 16.79373841 4.12686823 20 6 C20 6.66 20 7.32 20 8 C15.61287008 7.34758918 11.44153703 6.3793332 7.1875 5.125 C6.04667969 4.79757813 4.90585938 4.47015625 3.73046875 4.1328125 C2.82941406 3.75898438 1.92835938 3.38515625 1 3 C0.67 2.01 0.34 1.02 0 0 Z " fill="#034DAC" transform="translate(212,22)"/>
<path d="M0 0 C4.95 0.99 4.95 0.99 10 2 C10 2.66 10 3.32 10 4 C10.66 4 11.32 4 12 4 C12 4.66 12 5.32 12 6 C12.721875 6.226875 13.44375 6.45375 14.1875 6.6875 C17.53209313 8.24831013 19.51603959 10.3031287 22 13 C18.46176973 11.67788548 15.33805196 10.10621095 12.125 8.125 C8.11959378 5.67858423 4.08576192 3.3093437 0 1 C0 0.67 0 0.34 0 0 Z " fill="#338DDE" transform="translate(190,116)"/>
<path d="M0 0 C5.15464734 0.48324819 8.81550319 3.18610761 13 6 C12.67 6.66 12.34 7.32 12 8 C8.04 6.02 4.08 4.04 0 2 C0 1.34 0 0.68 0 0 Z " fill="#013F93" transform="translate(273,44)"/>
<path d="M0 0 C0.33 0 0.66 0 1 0 C1 2.97 1 5.94 1 9 C0.01 9 -0.98 9 -2 9 C-3.03789581 10.64333504 -4.03567924 12.31243867 -5 14 C-5.99 14.66 -6.98 15.32 -8 16 C-8 12.22377369 -6.94786173 11.4086157 -4.5625 8.5625 C-2.18717273 5.7265032 -0.59684439 3.69034769 0 0 Z " fill="#3B95E3" transform="translate(242,163)"/>
<path d="M0 0 C0.66 0.33 1.32 0.66 2 1 C0.37965717 3.14949538 -1.24595794 5.2946141 -2.875 7.4375 C-3.33519531 8.04916016 -3.79539063 8.66082031 -4.26953125 9.29101562 C-7.7734375 13.88671875 -7.7734375 13.88671875 -10 15 C-9.42676569 11.13066838 -7.61046448 8.84777943 -5 6 C-4.34 6 -3.68 6 -3 6 C-2.690625 5.38125 -2.38125 4.7625 -2.0625 4.125 C-1.375 2.75 -0.6875 1.375 0 0 Z " fill="#0452B0" transform="translate(242,242)"/>
<path d="M0 0 C0 3.61029169 -0.96092582 6.55806676 -2 10 C-3.32 8.68 -4.64 7.36 -6 6 C-4.02 4.02 -2.04 2.04 0 0 Z " fill="#1D72CF" transform="translate(233,178)"/>
<path d="M0 0 C1.77260631 0.45142775 3.5430368 0.91140523 5.3125 1.375 C6.79169922 1.75785156 6.79169922 1.75785156 8.30078125 2.1484375 C11 3 11 3 14 5 C9.33333333 4.33333333 4.66666667 3.66666667 0 3 C0 2.01 0 1.02 0 0 Z " fill="#003373" transform="translate(232,28)"/>
<path d="M0 0 C0 0.99 0 1.98 0 3 C-0.99 3.33 -1.98 3.66 -3 4 C-3.309375 4.66 -3.61875 5.32 -3.9375 6 C-5 8 -5 8 -7.125 8.75 C-8.053125 8.87375 -8.053125 8.87375 -9 9 C-6.21000549 5.51250686 -3.74764169 2.49842779 0 0 Z " fill="#CFECF8" transform="translate(90,62)"/>
<path d="M0 0 C2.75 -0.25 2.75 -0.25 6 0 C8.375 2 8.375 2 10 4 C9.01 4.495 9.01 4.495 8 5 C6.0546875 4.22265625 6.0546875 4.22265625 3.875 3.0625 C3.15054688 2.68222656 2.42609375 2.30195313 1.6796875 1.91015625 C1.12539062 1.60980469 0.57109375 1.30945313 0 1 C0 0.67 0 0.34 0 0 Z " fill="#1177DE" transform="translate(128,308)"/>
<path d="M0 0 C4.51478398 0.53115106 7.34666857 2.36620292 11 5 C10.01 5.495 10.01 5.495 9 6 C6.8359375 5.00390625 6.8359375 5.00390625 4.375 3.5625 C3.55773437 3.08941406 2.74046875 2.61632812 1.8984375 2.12890625 C1.27195312 1.75636719 0.64546875 1.38382812 0 1 C0 0.67 0 0.34 0 0 Z " fill="#0762C3" transform="translate(117,302)"/>
<path d="M0 0 C1.12894876 0.93274109 2.25300876 1.87140122 3.375 2.8125 C4.00148438 3.33457031 4.62796875 3.85664063 5.2734375 4.39453125 C7 6 7 6 9 9 C6.6875 8.8125 6.6875 8.8125 4 8 C2.06208579 5.36997358 1.03295481 3.09886444 0 0 Z " fill="#2475CC" transform="translate(59,177)"/>
<path d="M0 0 C-1.44390925 3.80666984 -3.34952803 5.26602582 -7 7 C-7.66 6.67 -8.32 6.34 -9 6 C-7.8803014 4.99406757 -6.7540588 3.9954151 -5.625 3 C-4.68527344 2.1646875 -4.68527344 2.1646875 -3.7265625 1.3125 C-2 0 -2 0 0 0 Z " fill="#338FE5" transform="translate(102,71)"/>
<path d="M0 0 C0.99 0.33 1.98 0.66 3 1 C0.36 2.98 -2.28 4.96 -5 7 C-5.66 6.67 -6.32 6.34 -7 6 C-5.90716423 4.96704564 -4.80029421 3.94892165 -3.6875 2.9375 C-3.07261719 2.36902344 -2.45773438 1.80054688 -1.82421875 1.21484375 C-0.92123047 0.61349609 -0.92123047 0.61349609 0 0 Z " fill="#0546C1" transform="translate(193,289)"/>
<path d="M0 0 C-0.33 0.99 -0.66 1.98 -1 3 C-3.31 3.33 -5.62 3.66 -8 4 C-7.34 3.67 -6.68 3.34 -6 3 C-6 2.34 -6 1.68 -6 1 C-3 0 -3 0 0 0 Z " fill="#0C62CB" transform="translate(77,24)"/>
<path d="M0 0 C0.66 0 1.32 0 2 0 C0.25 3.875 0.25 3.875 -2 5 C-3.99960012 5.039992 -6.00047242 5.04346799 -8 5 C-8 4.67 -8 4.34 -8 4 C-6.576875 3.566875 -6.576875 3.566875 -5.125 3.125 C-1.94788422 2.23174891 -1.94788422 2.23174891 0 0 Z " fill="#3590E5" transform="translate(213,76)"/>
<path d="M0 0 C1.22589844 0.29197266 1.22589844 0.29197266 2.4765625 0.58984375 C3.41628906 0.82380859 3.41628906 0.82380859 4.375 1.0625 C4.375 1.3925 4.375 1.7225 4.375 2.0625 C2.91707116 2.11649736 1.45857288 2.15529177 0 2.1875 C-0.81210938 2.21070313 -1.62421875 2.23390625 -2.4609375 2.2578125 C-4.625 2.0625 -4.625 2.0625 -6.625 0.0625 C-3.99249612 -1.25375194 -2.82320944 -0.68563658 0 0 Z " fill="#023CA0" transform="translate(207.625,19.9375)"/>
</svg>
